<?xml version="1.0" encoding="UTF-8"?>
<!DOCTYPE svg PUBLIC "-//W3C//DTD SVG 1.1//EN" "http://www.w3.org/Graphics/SVG/1.1/DTD/svg11.dtd">
<!-- Creator: CorelDRAW -->
<svg xmlns="http://www.w3.org/2000/svg" xml:space="preserve" width="120mm" height="100mm" style="shape-rendering:geometricPrecision; text-rendering:geometricPrecision; image-rendering:optimizeQuality; fill-rule:evenodd; clip-rule:evenodd"
viewBox="0 0 120 100"
 xmlns:xlink="http://www.w3.org/1999/xlink">
 <defs>
  <style type="text/css">
   <![CDATA[
    .fil0 {fill:#0078BF;fill-rule:nonzero}
    .fil1 {fill:#696F71;fill-rule:nonzero}
   ]]>
  </style>
 </defs>
 <g id="Layer_x0020_1">
  <metadata id="CorelCorpID_0Corel-Layer"/>
  <g id="геофак_лого.eps">
   <polygon id="_206253752" class="fil0" points="12.8902,73.9009 15.5234,73.9009 15.5234,74.7242 13.7559,74.7242 13.7559,79.9644 12.8902,79.9644 "/>
   <polygon id="_206253872" class="fil0" points="16.1595,73.9009 18.7312,73.9009 18.7312,74.7242 17.0249,74.7242 17.0249,76.5082 18.5325,76.5082 18.5325,77.2889 17.0249,77.2889 17.0249,79.141 18.7585,79.141 18.7585,79.9644 16.1595,79.9644 "/>
   <path id="_206253968" class="fil0" d="M21.9183 75.3642c0,-0.1824 -0.0165,-0.3638 -0.1812,-0.5281 -0.0951,-0.0953 -0.2515,-0.1732 -0.4678,-0.1732 -0.2164,0 -0.3718,0.0779 -0.4683,0.1732 -0.1647,0.1643 -0.1812,0.3457 -0.1812,0.5281l0 3.1359c0,0.1834 0.0165,0.3636 0.1812,0.5291 0.0965,0.0952 0.2519,0.1732 0.4683,0.1732 0.2163,0 0.3727,-0.078 0.4678,-0.1732 0.1647,-0.1655 0.1812,-0.3457 0.1812,-0.5291l0 -3.1359zm-2.166 0.1305c0,-0.4589 0.0352,-0.901 0.4514,-1.2904 0.2597,-0.2421 0.6149,-0.3896 1.0656,-0.3896 0.4513,0 0.8054,0.1475 1.0652,0.3896 0.4162,0.3894 0.4516,0.8315 0.4516,1.2904l0 2.8758c0,0.459 -0.0354,0.9014 -0.4516,1.2913 -0.2598,0.2433 -0.6139,0.3908 -1.0652,0.3908 -0.4507,0 -0.8059,-0.1475 -1.0656,-0.3908 -0.4162,-0.3899 -0.4514,-0.8323 -0.4514,-1.2913l0 -2.8758z"/>
   <polygon id="_206254040" class="fil0" points="23.9421,73.9009 26.5762,73.9009 26.5762,74.7242 24.8078,74.7242 24.8078,79.9644 23.9421,79.9644 "/>
   <path id="_206254088" class="fil0" d="M28.2769 76.7859l0.4682 0c0.1657,0 0.3976,-0.0262 0.5798,-0.2261 0.1823,-0.1987 0.1658,-0.4068 0.1658,-0.623l0 -0.3987c0,-0.2074 0.0082,-0.5023 -0.2343,-0.702 -0.1989,-0.1634 -0.4421,-0.1553 -0.6771,-0.1553l-0.3024 0 0 2.1051zm-0.8654 -2.885l1.2898 0c0.3728,0 0.8317,0.0165 1.2127,0.3989 0.3986,0.4064 0.4421,0.9355 0.4421,1.3851l0 0.1743c0,0.3375 -0.0342,0.8395 -0.3718,1.2287 -0.3552,0.407 -0.823,0.4773 -1.1958,0.4773l-0.5116 0 0 2.3992 -0.8654 0 0 -6.0635z"/>
   <path id="_206254160" class="fil0" d="M32.4365 75.5896l-0.4502 2.3051 0.918 0 -0.4678 -2.3051zm0.8571 4.3748l-0.2855 -1.2997 -1.1091 0 -0.2855 1.2997 -0.8668 0 1.3253 -6.0635 0.7631 0 1.3253 6.0635 -0.8668 0z"/>
   <path id="_206254232" class="fil0" d="M37.3497 78.3438l0.2529 0c0.1737,0 0.3893,-0.0081 0.5797,-0.2148 0.1824,-0.2083 0.1645,-0.4082 0.1645,-0.6237l0 -1.2666c0,-0.206 0.0092,-0.502 -0.2339,-0.7006 -0.1998,-0.1648 -0.441,-0.1556 -0.675,-0.1556l-0.0882 0 0 2.9613zm-0.9515 -2.9613c-0.235,0 -0.4771,-0.0092 -0.6759,0.1556 -0.2426,0.1986 -0.2343,0.4946 -0.2343,0.7006l0 1.2666c0,0.2155 -0.0165,0.4154 0.1647,0.6237 0.1906,0.2067 0.4069,0.2148 0.5808,0.2148l0.2508 0 0 -2.9613 -0.0861 0zm0.9515 -0.7888l0.2092 0c0.3728,0 0.8326,0.0166 1.2127,0.3997 0.3985,0.4057 0.4419,0.9338 0.4419,1.3853l0 1.0479c0,0.3376 -0.0351,0.848 -0.3727,1.23 -0.3893,0.4505 -0.9442,0.4844 -1.1948,0.4844l-0.2963 0 0 0.8234 -0.8654 0 0 -0.8234 -0.2942 0c-0.2505,0 -0.8054,-0.0339 -1.1959,-0.4844 -0.3374,-0.382 -0.3716,-0.8924 -0.3716,-1.23l0 -1.0479c0,-0.4515 0.0423,-0.9796 0.441,-1.3853 0.381,-0.3831 0.8408,-0.3997 1.2136,-0.3997l0.2071 0 0 -0.779 0.8654 0 0 0.779z"/>
   <polygon id="_206254304" class="fil0" points="41.2485,73.9009 41.2485,77.6265 42.6783,74.5937 42.6783,73.9009 43.545,73.9009 43.545,79.9644 42.6783,79.9644 42.6783,76.2387 41.2485,79.2719 41.2485,79.9644 40.3828,79.9644 40.3828,73.9009 "/>
   <path id="_206254376" class="fil0" d="M47.6208 73.9009l0 6.0635 -0.8665 0 0 -2.2119c-0.1822,0.0698 -0.3903,0.1223 -0.667,0.1223 -0.5808,0 -0.8663,-0.2422 -0.9701,-0.3654 -0.2773,-0.3114 -0.3042,-0.787 -0.3042,-1.0819l0 -2.5266 0.8675 0 0 2.3357c0,0.1814 0,0.519 0.1636,0.7013 0.1224,0.1316 0.2953,0.1574 0.4244,0.1574 0.1647,0 0.3211,-0.0258 0.4858,-0.1225l0 -3.0719 0.8665 0z"/>
   <polygon id="_206254448" class="fil0" points="49.0193,73.9009 51.5914,73.9009 51.5914,74.7242 49.885,74.7242 49.885,76.5082 51.3928,76.5082 51.3928,77.2889 49.885,77.2889 49.885,79.141 51.6182,79.141 51.6182,79.9644 49.0193,79.9644 "/>
   <path id="_206254520" class="fil0" d="M54.6408 75.2792c0,-0.1221 -0.0356,-0.2858 -0.1132,-0.3998 -0.0434,-0.0599 -0.174,-0.2165 -0.4502,-0.2165 -0.2261,0 -0.3634,0.0952 -0.4505,0.1993 -0.1386,0.1736 -0.1467,0.3898 -0.1467,0.5993l0 2.987c0,0.1997 0,0.381 0.1114,0.5373 0.0611,0.0868 0.1997,0.2166 0.4421,0.2166 0.1905,0 0.382,-0.0684 0.4857,-0.2082 0.0434,-0.0599 0.1214,-0.199 0.1214,-0.4941l0 -0.2164 0.8664 0 0 0.2516c0,0.5987 -0.2081,0.9433 -0.3644,1.1095 -0.1824,0.1983 -0.5376,0.4078 -1.1349,0.4078 -0.5715,0 -0.9006,-0.2343 -1.0911,-0.46 -0.3119,-0.3644 -0.3024,-0.7797 -0.3024,-1.0925l0 -3.1433c0,-0.399 0.0515,-0.8502 0.441,-1.1878 0.2681,-0.2431 0.6668,-0.3543 0.9874,-0.3543 0.3638,0 0.7874,0.1373 1.0481,0.3896 0.2174,0.2165 0.3895,0.5799 0.3895,1.0043l0 0.4163 -0.8396 0 0 -0.3457z"/>
   <path id="_206254592" class="fil0" d="M57.3554 73.9009l0 2.5988 0.4932 0c0.1224,0 0.2339,-0.0528 0.321,-0.1809 0.1126,-0.1566 0.1471,-0.3739 0.1905,-0.7972l0.06 -0.5469c0.0353,-0.3292 0.0868,-0.6935 0.3464,-0.9172 0.2512,-0.2177 0.5807,-0.2258 0.8068,-0.2258l0.1281 0 0 0.7786 -0.1118 0c-0.0692,0 -0.1644,0.0454 -0.2255,0.0959 -0.0952,0.0865 -0.1284,0.2516 -0.1728,0.641l-0.0607 0.58c-0.025,0.235 -0.0413,0.4515 -0.1207,0.6505 -0.0529,0.121 -0.1044,0.1916 -0.1915,0.2501l0.9359 3.1366 -0.944 0 -0.7536 -2.685 -0.7013 0 0 2.685 -0.8664 0 0 -6.0635 0.8664 0z"/>
   <polygon id="_206254664" class="fil0" points="61.715,73.9009 61.715,77.6265 63.1452,74.5937 63.1452,73.9009 64.0113,73.9009 64.0113,79.9644 63.1452,79.9644 63.1452,76.2387 61.715,79.2719 61.715,79.9644 60.8493,79.9644 60.8493,73.9009 "/>
   <path id="_206254736" class="fil0" d="M67.9529 72.5497c0,0.3462 -0.1313,0.5705 -0.2614,0.694 -0.1733,0.1633 -0.4587,0.2402 -0.797,0.2402 -0.3379,0 -0.624,-0.0769 -0.7951,-0.2402 -0.1309,-0.1235 -0.2614,-0.3478 -0.2614,-0.694l0 -0.1048 0.6939 0 0 0.078c0,0.0702 0.0084,0.1647 0.103,0.2427 0.078,0.0702 0.1647,0.0783 0.2596,0.0783 0.096,0 0.1814,-0.0081 0.2604,-0.0783 0.0956,-0.078 0.1041,-0.1725 0.1041,-0.2427l0 -0.078 0.6939 0 0 0.1048zm-1.777 1.3512l0 3.7256 1.4291 -3.0328 0 -0.6928 0.8654 0 0 6.0635 -0.8654 0 0 -3.7257 -1.4291 3.0332 0 0.6925 -0.8671 0 0 -6.0635 0.8671 0z"/>
   <path id="_206254808" class="fil0" d="M74.4038 78.3438l0.2508 0c0.1736,0 0.3898,-0.0081 0.5817,-0.2148 0.1806,-0.2083 0.1634,-0.4082 0.1634,-0.6237l0 -1.2666c0,-0.206 0.0088,-0.502 -0.2336,-0.7006 -0.1997,-0.1648 -0.441,-0.1556 -0.6752,-0.1556l-0.0871 0 0 2.9613zm-0.9532 -2.9613c-0.2336,0 -0.4759,-0.0092 -0.676,0.1556 -0.2413,0.1986 -0.2335,0.4946 -0.2335,0.7006l0 1.2666c0,0.2155 -0.0176,0.4154 0.1647,0.6237 0.1905,0.2067 0.4064,0.2148 0.58,0.2148l0.2515 0 0 -2.9613 -0.0867 0zm0.9532 -0.7888l0.2077 0c0.3719,0 0.8322,0.0166 1.2129,0.3997 0.3986,0.4057 0.441,0.9338 0.441,1.3853l0 1.0479c0,0.3376 -0.0328,0.848 -0.3719,1.23 -0.3894,0.4505 -0.9436,0.4844 -1.1952,0.4844l-0.2945 0 0 0.8234 -0.8665 0 0 -0.8234 -0.2942 0c-0.2515,0 -0.8068,-0.0339 -1.1959,-0.4844 -0.3373,-0.382 -0.3725,-0.8924 -0.3725,-1.23l0 -1.0479c0,-0.4515 0.043,-0.9796 0.4427,-1.3853 0.3796,-0.3831 0.8389,-0.3997 1.2114,-0.3997l0.2085 0 0 -0.779 0.8665 0 0 0.779z"/>
   <path id="_206254880" class="fil0" d="M78.5394 75.5896l-0.4498 2.3051 0.9183 0 -0.4685 -2.3051zm0.8579 4.3748l-0.2857 -1.2997 -1.1084 0 -0.2858 1.2997 -0.8664 0 1.3257 -6.0635 0.7613 0 1.3268 6.0635 -0.8675 0z"/>
   <path id="_206254952" class="fil0" d="M82.1698 73.9009l0 2.5988 0.4943 0c0.1199,0 0.2335,-0.0528 0.3206,-0.1809 0.1115,-0.1566 0.1468,-0.3739 0.1895,-0.7972l0.0606 -0.5469c0.035,-0.3292 0.0872,-0.6935 0.3475,-0.9172 0.2502,-0.2177 0.5796,-0.2258 0.8044,-0.2258l0.1308 0 0 0.7786 -0.1132 0c-0.0695,0 -0.1647,0.0454 -0.2247,0.0959 -0.0967,0.0865 -0.1312,0.2516 -0.1743,0.641l-0.0596 0.58c-0.0275,0.235 -0.0441,0.4515 -0.1221,0.6505 -0.0518,0.121 -0.104,0.1916 -0.1908,0.2501l0.9363 3.1366 -0.9451 0 -0.7536 -2.685 -0.7006 0 0 2.685 -0.8671 0 0 -6.0635 0.8671 0z"/>
   <path id="_206255024" class="fil0" d="M86.3576 73.9009l0.8322 2.9703 0.0254 0c0.0522,-0.3288 0.1482,-0.8829 0.2262,-1.2381l0.3796 -1.7322 0.8932 0 -1.0305 4.1408c-0.1725,0.675 -0.2868,1.4471 -0.7965,1.7601 -0.2607,0.1553 -0.519,0.1626 -0.7455,0.1626l-0.3129 0 0 -0.8234 0.2184 0c0.1711,0 0.321,-0.06 0.3976,-0.1468 0.0688,-0.0694 0.1478,-0.2508 0.1735,-0.3643l0.1119 -0.5095 -1.3589 -4.2195 0.9863 0z"/>
   <path id="_206255096" class="fil0" d="M92.3757 79.9644l-0.8672 0 0 -5.2836 -0.6939 0 -0.0247 0.8488c-0.0338,1.0566 -0.043,1.5512 -0.0783,2.0275 -0.0437,0.6406 -0.0952,0.9609 -0.1295,1.1264 -0.061,0.2942 -0.1467,0.58 -0.4148,0.8734 -0.3214,0.3482 -0.659,0.4075 -1.0135,0.4075l-0.2001 0 0 -0.8234 0.0953 0c0.0868,0 0.2078,-0.007 0.3383,-0.0846 0.2074,-0.1221 0.2847,-0.3397 0.3027,-0.3998 0.0959,-0.3048 0.1559,-1.1875 0.1725,-1.4912 0.0271,-0.4758 0.0518,-0.8573 0.0614,-1.6358l0.0254 -1.6287 2.4264 0 0 6.0635z"/>
   <path id="_206255168" class="fil0" d="M94.6405 79.1848l0.3888 0c0.2261,0 0.7461,-0.0508 0.7461,-0.9011l0 -0.3291c0,-0.2942 -0.0438,-0.5024 -0.2335,-0.6657 -0.1383,-0.1133 -0.2689,-0.1577 -0.4604,-0.1577l-0.441 0 0 2.0536zm0 -5.2839l0 2.4511 0.424 0c0.3391,0 0.8143,-0.0166 1.2048,0.3467 0.3725,0.3469 0.3725,0.7797 0.3725,1.0044l0 0.7112c0,0.2939 -0.018,0.6326 -0.2515,0.9786 -0.1637,0.2433 -0.502,0.5715 -1.2997,0.5715l-1.3169 0 0 -6.0635 0.8668 0z"/>
   <polygon id="_206255240" class="fil0" points="99.905,73.9009 99.905,74.7242 98.8301,74.7242 98.8301,79.9644 97.963,79.9644 97.963,74.7242 96.8898,74.7242 96.8898,73.9009 "/>
   <polygon id="_206255312" class="fil0" points="100.809,73.9009 103.381,73.9009 103.381,74.7242 101.675,74.7242 101.675,76.5082 103.181,76.5082 103.181,77.2889 101.675,77.2889 101.675,79.141 103.407,79.141 103.407,79.9644 100.809,79.9644 "/>
   <polygon id="_206255384" class="fil0" points="107.11,73.9009 107.11,74.7242 106.036,74.7242 106.036,79.9644 105.17,79.9644 105.17,74.7242 104.095,74.7242 104.095,73.9009 "/>
   <path id="_206255456" class="fil1" d="M60.4249 14.5001c-0.0666,0 -0.1301,0.0138 -0.189,0.0346 -0.1863,-0.0554 -0.3426,-0.1252 -0.4728,-0.2067l0.6618 -0.4809 0.6548 0.4756c-0.1295,0.0825 -0.2865,0.1534 -0.4731,0.2095 -0.0575,-0.019 -0.1178,-0.0321 -0.1817,-0.0321zm-1.2915 -1.5917l0.7751 0.5634 -0.2533 0.781c-0.6216,-0.4702 -0.5465,-1.1941 -0.5218,-1.3444zm2.5693 0.0106c0.025,0.1697 0.0829,0.8632 -0.5112,1.3236l-0.2501 -0.7708 0.7613 -0.5528zm1.0372 18.1455c0,-0.9458 -0.5638,-1.7583 -1.3734,-2.1238l0.0032 0c-0.0413,-0.0194 -0.0822,-0.0412 -0.1253,-0.0578 -0.3252,-0.1524 -0.2906,-0.6029 -0.2906,-0.6029 0,0 0,0 0.6759,-1.621 -0.1337,-0.4008 -0.5454,-0.5437 -0.5454,-0.5437l0 -0.3965c0,0 0.3979,-0.5644 0.2769,-1.3451 -0.018,-0.1143 -0.5997,-7.9358 -0.6667,-8.7852 0.1831,-0.0971 0.309,-0.2876 0.309,-0.5095 0,-0.0624 -0.012,-0.1217 -0.031,-0.1785 1.6894,-0.9041 0.8636,-2.3978 0.497,-2.5851 -0.0681,-0.0424 -0.1083,0.0197 -0.0642,0.0652 0.0582,0.0438 0.1976,0.2283 0.2851,0.4841l-0.9458 0 -0.3197 -0.9822 -0.3196 0.9822 -0.9617 0c0.0872,-0.2558 0.2265,-0.4403 0.284,-0.4841 0.0445,-0.0455 0.0046,-0.1076 -0.0635,-0.0652 -0.3679,0.188 -1.1973,1.6887 0.5105,2.5929 -0.0166,0.054 -0.0282,0.1108 -0.0282,0.1707 0,0.2156 0.1185,0.4011 0.2931,0.5006 -0.0638,0.8111 -0.6498,8.6794 -0.6674,8.7941 -0.1207,0.7807 0.2773,1.3451 0.2773,1.3451l0 0.3965c0,0 -0.411,0.1429 -0.5451,0.5437 0.6763,1.621 0.6763,1.621 0.6763,1.621 0,0 0.0339,0.4505 -0.2914,0.6029 -0.006,0.0025 -0.012,0.006 -0.0183,0.0084 -0.8725,0.3373 -1.4926,1.1819 -1.4926,2.1732 0,0.001 0.0003,0.0021 0.0003,0.0035l0 1.8634 -1.023 0 0 2.9986 6.7073 0 0 -2.9986 -1.023 0 0 -1.8669zm-0.8619 31.9588c0.35,0.0106 0.6978,0.0229 1.045,0.0396l0 -25.9053 -1.045 0 0 25.8657zm18.0679 -15.4425l0 19.1908c0.6823,0.2745 1.3585,0.5609 2.0271,0.8625l0 -20.0533 -2.0271 0zm-3.8432 0l-2.9315 0 0 16.9958c1.9783,0.4946 3.9116,1.1032 5.7947,1.8146l0 -20.5446 -2.8632 0 0 1.7342zm-8.4829 15.9224c1.4874,0.206 2.9553,0.4708 4.4006,0.7978l0 -10.3726 -4.4006 0 0 9.5748zm-3.6957 -0.3804c0.8485,0.0572 1.6916,0.1344 2.5284,0.2311l0 -26.1963 -2.5284 0 0 25.9652zm-19.9381 -17.2762l-2.9672 0 0 20.8237c1.8865,-0.7451 3.8254,-1.3867 5.8105,-1.9138l0 -17.1757 -2.8433 0 0 -1.7342zm4.038 18.6086c1.5453,-0.3715 3.119,-0.6738 4.7143,-0.9059l0 -9.6209 -4.7143 0 0 10.5268zm-9.9965 3.5038c0.6631,-0.3107 1.3342,-0.6071 2.0118,-0.8911l0 -19.4871 -2.0118 0 0 20.3782zm21.8051 -4.9522c0.1725,-0.0018 0.344,-0.0082 0.5168,-0.0082 0.1764,0 0.3514,0.0071 0.5282,0.0082l0 -25.8492 -1.045 0 0 25.8492zm-5.9305 -10.2814l0.0042 0 0 10.6687c0.9525,-0.1171 1.9124,-0.2061 2.8804,-0.2713l0 -25.9652 -2.8846 0 0 15.5678zm3.8862 10.3375c0.3475,-0.0167 0.6953,-0.029 1.0435,-0.0396l0 -25.8657 -1.0435 0 0 25.9053z"/>
   <polygon id="_206255552" class="fil0" points="27.454,83.4604 28.1118,83.4604 29.0195,85.9993 29.0461,85.9993 29.9077,83.4604 30.5652,83.4604 30.5652,88.0649 29.9077,88.0649 29.9077,85.1837 29.8746,85.1837 29.1842,87.2623 28.8355,87.2623 28.1447,85.1837 28.1118,85.1837 28.1118,88.0649 27.454,88.0649 "/>
   <polygon id="_206255624" class="fil0" points="31.4273,83.4604 33.4271,83.4604 33.4271,84.0852 32.0852,84.0852 32.0852,88.0649 31.4273,88.0649 "/>
   <path id="_206255696" class="fil0" d="M34.5312 83.4604l0.6316 2.2556 0.0195 0c0.0397,-0.2493 0.1121,-0.6705 0.1714,-0.9404l0.2893 -1.3152 0.6778 0 -0.7829 3.144c-0.1315,0.5132 -0.2171,1.0982 -0.6052,1.3352 -0.1974,0.1185 -0.3948,0.1253 -0.5657,0.1253l-0.2368 0 0 -0.6251 0.1644 0c0.1314,0 0.2433,-0.0459 0.3025,-0.1119 0.0524,-0.0525 0.1116,-0.1909 0.1316,-0.2762l0.0859 -0.388 -1.033 -3.2033 0.7496 0z"/>
   <polygon id="_206255768" class="fil0" points="38.6706,84.8021 38.6706,86.6244 39.4799,85.2035 39.4799,84.8021 40.1375,84.8021 40.1375,88.0649 39.4799,88.0649 39.4799,86.2428 38.6706,87.6635 38.6706,88.0649 38.013,88.0649 38.013,84.8021 "/>
   <polygon id="_206255840" class="fil0" points="42.2232,86.6244 42.2362,86.6244 42.9335,84.8021 43.5388,84.8021 43.5388,88.0649 42.9205,88.0649 42.9205,86.2096 42.3679,87.5979 42.0916,87.5979 41.539,86.2096 41.539,88.0649 40.9207,88.0649 40.9207,84.8021 41.5259,84.8021 "/>
   <path id="_206255912" class="fil0" d="M45.6242 86.1705l0 -0.4276c0,-0.0861 -0.0129,-0.1775 -0.0921,-0.2569 -0.0526,-0.0522 -0.1381,-0.0916 -0.2435,-0.0916 -0.1116,0 -0.2039,0.0455 -0.2563,0.1117 -0.0662,0.0787 -0.0792,0.1775 -0.0792,0.2632l0 0.4012 0.6711 0zm-0.6711 0.927c0,0.0988 0.0069,0.2044 0.0854,0.2833 0.0531,0.059 0.145,0.0918 0.2501,0.0918 0.1121,0 0.1975,-0.0391 0.2632,-0.1379 0.0393,-0.066 0.0595,-0.1511 0.0595,-0.2234l0.6574 0 0 0.0257c0,0.2438 -0.0458,0.5656 -0.3682,0.7963 -0.1644,0.1182 -0.3879,0.1841 -0.6119,0.1841 -0.3025,0 -0.5854,-0.1249 -0.7565,-0.3153 -0.2302,-0.2572 -0.2366,-0.5927 -0.2366,-0.7899l0 -1.2499c0,-0.23 0.046,-0.5522 0.3223,-0.7888 0.1513,-0.132 0.3748,-0.224 0.6511,-0.224 0.2829,0 0.52,0.092 0.6839,0.237 0.2898,0.2494 0.3294,0.5789 0.3294,0.8351l0 0.855 -1.3291 0 0 0.4209z"/>
   <polygon id="_206255984" class="fil0" points="47.0061,84.8021 47.6637,84.8021 47.6637,86.1179 48.3345,86.1179 48.3345,84.8021 48.9928,84.8021 48.9928,88.0649 48.3345,88.0649 48.3345,86.7099 47.6637,86.7099 47.6637,88.0649 47.0061,88.0649 "/>
   <polygon id="_206256056" class="fil0" points="50.4336,84.8021 50.4336,86.6244 51.2421,85.2035 51.2421,84.8021 51.9001,84.8021 51.9001,88.0649 51.2421,88.0649 51.2421,86.2428 50.4336,87.6635 50.4336,88.0649 49.7753,88.0649 49.7753,84.8021 "/>
   <polygon id="_206256128" class="fil0" points="54.3275,83.4604 54.9858,83.4604 55.8932,85.9993 55.9196,85.9993 56.7811,83.4604 57.439,83.4604 57.439,88.0649 56.7811,88.0649 56.7811,85.1837 56.7483,85.1837 56.0576,87.2623 55.709,87.2623 55.0186,85.1837 54.9858,85.1837 54.9858,88.0649 54.3275,88.0649 "/>
   <polygon id="_206256200" class="fil0" points="58.2356,88.0649 58.9588,88.0649 58.9588,87.341 58.2356,87.341 "/>
   <path id="_206256272" class="fil0" d="M60.4789 87.4726l0.2963 0c0.0985,0 0.3091,-0.0131 0.447,-0.2039 0.1118,-0.1511 0.1178,-0.3881 0.1178,-0.4668l0 -0.2173c0,-0.2232 -0.0321,-0.3813 -0.1774,-0.5062 -0.1048,-0.0857 -0.2036,-0.1182 -0.3482,-0.1182l-0.3355 0 0 1.5124zm0 -2.1051l0.3158 0c0.2233,0 0.3552,-0.0916 0.4208,-0.1707 0.0787,-0.0921 0.1245,-0.2501 0.1245,-0.3947l0 -0.2826c0,-0.1185 -0.0522,-0.2371 -0.1245,-0.3162 -0.0787,-0.0786 -0.2106,-0.1508 -0.4276,-0.1508l-0.309 0 0 1.315zm0.23 -1.9071c0.1976,0 0.5789,0.0195 0.8682,0.2237 0.4145,0.296 0.4216,0.7892 0.4216,1.0586 0,0.3028 -0.0268,0.5133 -0.1972,0.7173 -0.0861,0.1054 -0.1849,0.1707 -0.2508,0.2105 0.1781,0.0787 0.2571,0.1906 0.316,0.2897 0.132,0.23 0.132,0.3548 0.132,0.5785l0 0.3489c0,0.1906 0,0.6644 -0.3955,0.96 -0.1443,0.1121 -0.3877,0.2173 -0.7821,0.2173l-1.0005 0 0 -4.6045 0.8883 0z"/>
   <polygon id="_206256344" class="fil0" points="62.7293,88.0649 63.4525,88.0649 63.4525,87.341 62.7293,87.341 "/>
   <path id="_206256416" class="fil0" d="M67.6978 88.0649l-0.6576 0 0 -4.0124 -0.5263 0 -0.0198 0.6445c-0.0261,0.8021 -0.0328,1.1771 -0.0592,1.5391 -0.0336,0.4868 -0.072,0.7299 -0.0988,0.8551 -0.0455,0.2236 -0.1118,0.4407 -0.3158,0.6646 -0.2434,0.2632 -0.4998,0.3091 -0.7701,0.3091l-0.1502 0 0 -0.6251 0.0723 0c0.0649,0 0.1573,-0.0063 0.2557,-0.0657 0.1584,-0.0924 0.2173,-0.2565 0.2308,-0.3026 0.0723,-0.23 0.1181,-0.901 0.1312,-1.1314 0.0201,-0.3616 0.0395,-0.6509 0.0462,-1.2431l0.0194 -1.2366 1.8422 0 0 4.6045z"/>
   <path id="_206256488" class="fil0" d="M69.7905 85.8152c0,-0.1513 -0.0395,-0.2628 -0.0988,-0.3292 -0.0526,-0.0522 -0.1379,-0.0916 -0.2367,-0.0916 -0.0991,0 -0.1845,0.0394 -0.2374,0.0916 -0.0593,0.0664 -0.0985,0.1779 -0.0985,0.3292l0 1.2365c0,0.1514 0.0392,0.2631 0.0985,0.3291 0.0529,0.0527 0.1383,0.0918 0.2374,0.0918 0.0988,0 0.1841,-0.0391 0.2367,-0.0918 0.0593,-0.066 0.0988,-0.1777 0.0988,-0.3291l0 -1.2365zm-1.3289 0.0396c0,-0.2569 0.0197,-0.6189 0.3224,-0.8749 0.1775,-0.1513 0.4276,-0.2304 0.671,-0.2304 0.2431,0 0.4932,0.0791 0.671,0.2304 0.3027,0.256 0.3221,0.618 0.3221,0.8749l0 1.1574c0,0.2565 -0.0194,0.6181 -0.3221,0.8752 -0.1778,0.1506 -0.4279,0.23 -0.671,0.23 -0.2434,0 -0.4935,-0.0794 -0.671,-0.23 -0.3027,-0.2571 -0.3224,-0.6187 -0.3224,-0.8752l0 -1.1574z"/>
   <polygon id="_206256560" class="fil0" points="72.4744,86.6244 72.4875,86.6244 73.1849,84.8021 73.7899,84.8021 73.7899,88.0649 73.1712,88.0649 73.1712,86.2096 72.6187,87.5979 72.3425,87.5979 71.7904,86.2096 71.7904,88.0649 71.172,88.0649 71.172,84.8021 71.7763,84.8021 "/>
   <path id="_206256632" class="fil0" d="M75.8424 85.8152c0,-0.1513 -0.0399,-0.2628 -0.0988,-0.3292 -0.0526,-0.0522 -0.1379,-0.0916 -0.2364,-0.0916 -0.0987,0 -0.1841,0.0394 -0.2367,0.0916 -0.0596,0.0664 -0.0987,0.1779 -0.0987,0.3292l0 1.2365c0,0.1514 0.0391,0.2631 0.0987,0.3291 0.0526,0.0527 0.138,0.0918 0.2367,0.0918 0.0985,0 0.1838,-0.0391 0.2364,-0.0918 0.0589,-0.066 0.0988,-0.1777 0.0988,-0.3291l0 -1.2365zm-1.3289 0.0396c0,-0.2569 0.0204,-0.6189 0.3231,-0.8749 0.1771,-0.1513 0.4269,-0.2304 0.6706,-0.2304 0.2438,0 0.4936,0.0791 0.671,0.2304 0.302,0.256 0.3225,0.618 0.3225,0.8749l0 1.1574c0,0.2565 -0.0205,0.6181 -0.3225,0.8752 -0.1774,0.1506 -0.4272,0.23 -0.671,0.23 -0.2437,0 -0.4935,-0.0794 -0.6706,-0.23 -0.3027,-0.2571 -0.3231,-0.6187 -0.3231,-0.8752l0 -1.1574z"/>
   <polygon id="_206256704" class="fil0" points="77.2242,84.8021 77.8825,84.8021 77.8825,86.1179 78.5528,86.1179 78.5528,84.8021 79.2111,84.8021 79.2111,88.0649 78.5528,88.0649 78.5528,86.7099 77.8825,86.7099 77.8825,88.0649 77.2242,88.0649 "/>
   <path id="_206256776" class="fil0" d="M81.2632 85.8152c0,-0.1513 -0.0395,-0.2628 -0.0985,-0.3292 -0.0529,-0.0522 -0.1382,-0.0916 -0.2367,-0.0916 -0.0987,0 -0.1848,0.0394 -0.2374,0.0916 -0.0593,0.0664 -0.0984,0.1779 -0.0984,0.3292l0 1.2365c0,0.1514 0.0391,0.2631 0.0984,0.3291 0.0526,0.0527 0.1387,0.0918 0.2374,0.0918 0.0985,0 0.1838,-0.0391 0.2367,-0.0918 0.059,-0.066 0.0985,-0.1777 0.0985,-0.3291l0 -1.2365zm-1.3289 0.0396c0,-0.2569 0.0197,-0.6189 0.3227,-0.8749 0.1771,-0.1513 0.4273,-0.2304 0.671,-0.2304 0.2434,0 0.4929,0.0791 0.6707,0.2304 0.3026,0.256 0.3224,0.618 0.3224,0.8749l0 1.1574c0,0.2565 -0.0198,0.6181 -0.3224,0.8752 -0.1778,0.1506 -0.4273,0.23 -0.6707,0.23 -0.2437,0 -0.4939,-0.0794 -0.671,-0.23 -0.303,-0.2571 -0.3227,-0.6187 -0.3227,-0.8752l0 -1.1574z"/>
   <path id="_206256848" class="fil0" d="M83.9602 85.7888l0 -0.0459c0,-0.079 -0.0261,-0.1644 -0.072,-0.2237 -0.0459,-0.066 -0.1319,-0.1248 -0.2632,-0.1248 -0.0787,0 -0.1778,0.0194 -0.2565,0.1117 -0.0786,0.0918 -0.0917,0.204 -0.0917,0.3155l0 1.2629c0,0.0924 0.0194,0.2039 0.0783,0.2766 0.0332,0.0392 0.1119,0.1115 0.2699,0.1115 0.0991,0 0.1909,-0.0194 0.2632,-0.1115 0.0589,-0.0727 0.072,-0.145 0.072,-0.2173l0 -0.0526 0.6579 0 0 0.0592c0,0.3881 -0.1842,0.6185 -0.3284,0.7431 -0.145,0.1185 -0.3616,0.2239 -0.658,0.2239 -0.296,0 -0.5785,-0.0984 -0.7563,-0.2832 -0.2632,-0.2693 -0.2569,-0.585 -0.2569,-0.8682l0 -1.1243c0,-0.2632 0.0265,-0.5986 0.3027,-0.8489 0.1383,-0.1248 0.3556,-0.2433 0.6777,-0.2433 0.3161,0 0.5923,0.1055 0.7567,0.2829 0.1778,0.1842 0.2625,0.4801 0.2625,0.7369l0 0.0195 -0.6579 0z"/>
   <path id="_206256920" class="fil0" d="M86.5129 85.8152c0,-0.1513 -0.0392,-0.2628 -0.0985,-0.3292 -0.0522,-0.0522 -0.1379,-0.0916 -0.2367,-0.0916 -0.0988,0 -0.1845,0.0394 -0.237,0.0916 -0.059,0.0664 -0.0985,0.1779 -0.0985,0.3292l0 1.2365c0,0.1514 0.0395,0.2631 0.0985,0.3291 0.0525,0.0527 0.1382,0.0918 0.237,0.0918 0.0988,0 0.1845,-0.0391 0.2367,-0.0918 0.0593,-0.066 0.0985,-0.1777 0.0985,-0.3291l0 -1.2365zm-1.3286 0.0396c0,-0.2569 0.0198,-0.6189 0.3224,-0.8749 0.1778,-0.1513 0.4276,-0.2304 0.671,-0.2304 0.2434,0 0.4932,0.0791 0.671,0.2304 0.3027,0.256 0.3221,0.618 0.3221,0.8749l0 1.1574c0,0.2565 -0.0194,0.6181 -0.3221,0.8752 -0.1778,0.1506 -0.4276,0.23 -0.671,0.23 -0.2434,0 -0.4932,-0.0794 -0.671,-0.23 -0.3026,-0.2571 -0.3224,-0.6187 -0.3224,-0.8752l0 -1.1574z"/>
   <path id="_206256992" class="fil0" d="M88.5526 87.4726l0.3023 0c0.0861,0 0.2047,-0.0131 0.283,-0.1115 0.0659,-0.0727 0.0726,-0.158 0.0726,-0.2304l0 -0.1185c0,-0.0723 -0.013,-0.1707 -0.0786,-0.2431 -0.0794,-0.0853 -0.1842,-0.0988 -0.277,-0.0988l-0.3023 0 0 0.8023zm0 -1.3286l0.2893 0c0.0991,0 0.1845,-0.0067 0.2632,-0.1051 0.073,-0.0857 0.0793,-0.1841 0.0793,-0.2632l0 -0.0656c0,-0.1447 -0.0659,-0.2169 -0.0793,-0.23 -0.072,-0.0794 -0.1775,-0.0857 -0.2632,-0.0857l-0.2893 0 0 0.7496zm0.4276 -1.3419c0.2762,0 0.5069,0.0987 0.6452,0.237 0.1439,0.1511 0.2163,0.3877 0.2163,0.5656l0 0.1576c0,0.1387 -0.0191,0.3225 -0.1574,0.4805 -0.0335,0.0392 -0.1185,0.1186 -0.2568,0.1644 0.079,0.0265 0.1979,0.0786 0.3027,0.2172 0.1115,0.1508 0.1379,0.3222 0.1379,0.4668l0 0.1514c0,0.3023 -0.1446,0.5062 -0.2635,0.6117 -0.2095,0.1909 -0.4667,0.2106 -0.7098,0.2106l-0.9998 0 0 -3.2628 1.0852 0z"/>
   <path id="_206257064" class="fil0" d="M91.8878 86.6436c-0.0783,-0.0131 -0.1574,-0.0192 -0.2297,-0.0192 -0.1055,0 -0.2628,0.0131 -0.3686,0.138 -0.0851,0.0985 -0.0985,0.2367 -0.0985,0.3423 0,0.0916 0.0134,0.1837 0.0657,0.2694 0.0663,0.1055 0.1517,0.1514 0.2624,0.1514 0.1983,0 0.3687,-0.1316 0.3687,-0.4208l0 -0.4611zm0 1.0992l-0.0131 0c-0.0458,0.0722 -0.1312,0.1774 -0.2236,0.2497 -0.1246,0.0988 -0.2427,0.1249 -0.3814,0.1249 -0.1316,0 -0.3355,-0.0197 -0.4995,-0.1708 -0.2039,-0.1908 -0.2378,-0.4871 -0.2378,-0.7503 0,-0.2363 0.0134,-0.5919 0.2043,-0.8152 0.2176,-0.2569 0.5863,-0.2834 0.7764,-0.2834 0.0466,0 0.1715,0 0.3747,0.0202l0 -0.3422c0,-0.0921 -0.006,-0.1909 -0.0854,-0.2766 -0.066,-0.0723 -0.1644,-0.1047 -0.2628,-0.1047 -0.0928,0 -0.1909,0.0324 -0.2632,0.1181 -0.0458,0.0529 -0.0794,0.1252 -0.0854,0.2107l-0.6247 0c-0.0071,-0.2964 0.1185,-0.5525 0.2695,-0.7042 0.1644,-0.164 0.4339,-0.2695 0.7366,-0.2695 0.296,0 0.539,0.1055 0.7034,0.2632 0.2378,0.2367 0.2703,0.5457 0.2703,0.7697l0 2.2825 -0.6583 0 0 -0.3221z"/>
  </g>
 </g>
</svg>
